<mxfile host="app.diagrams.net" modified="2023-03-07T07:03:45.407Z" agent="5.0 (Windows NT 10.0; Win64; x64) AppleWebKit/537.36 (KHTML, like Gecko) Chrome/110.0.0.0 Safari/537.36" etag="gyWQtecOSOkmFd46oOFq" version="20.3.3" type="github">
  <diagram id="C5RBs43oDa-KdzZeNtuy" name="Page-1">
    <mxGraphModel dx="2249" dy="800" grid="1" gridSize="10" guides="1" tooltips="1" connect="1" arrows="1" fold="1" page="1" pageScale="1" pageWidth="827" pageHeight="1169" math="0" shadow="0">
      <root>
        <mxCell id="WIyWlLk6GJQsqaUBKTNV-0" />
        <mxCell id="WIyWlLk6GJQsqaUBKTNV-1" parent="WIyWlLk6GJQsqaUBKTNV-0" />
        <mxCell id="9SeCHtIBZzXsKNjQsnPQ-3" style="edgeStyle=orthogonalEdgeStyle;rounded=0;orthogonalLoop=1;jettySize=auto;html=1;exitX=0;exitY=0.75;exitDx=0;exitDy=0;entryX=0.5;entryY=0;entryDx=0;entryDy=0;" edge="1" parent="WIyWlLk6GJQsqaUBKTNV-1" source="WIyWlLk6GJQsqaUBKTNV-3" target="9SeCHtIBZzXsKNjQsnPQ-1">
          <mxGeometry relative="1" as="geometry" />
        </mxCell>
        <mxCell id="9SeCHtIBZzXsKNjQsnPQ-4" style="edgeStyle=orthogonalEdgeStyle;rounded=0;orthogonalLoop=1;jettySize=auto;html=1;exitX=0;exitY=0.5;exitDx=0;exitDy=0;entryX=0.5;entryY=0;entryDx=0;entryDy=0;" edge="1" parent="WIyWlLk6GJQsqaUBKTNV-1" source="WIyWlLk6GJQsqaUBKTNV-3" target="9SeCHtIBZzXsKNjQsnPQ-0">
          <mxGeometry relative="1" as="geometry" />
        </mxCell>
        <mxCell id="9SeCHtIBZzXsKNjQsnPQ-6" style="edgeStyle=orthogonalEdgeStyle;rounded=0;orthogonalLoop=1;jettySize=auto;html=1;exitX=0.5;exitY=1;exitDx=0;exitDy=0;entryX=0.5;entryY=0;entryDx=0;entryDy=0;" edge="1" parent="WIyWlLk6GJQsqaUBKTNV-1" source="WIyWlLk6GJQsqaUBKTNV-3" target="9SeCHtIBZzXsKNjQsnPQ-5">
          <mxGeometry relative="1" as="geometry" />
        </mxCell>
        <mxCell id="9SeCHtIBZzXsKNjQsnPQ-9" style="edgeStyle=orthogonalEdgeStyle;rounded=0;orthogonalLoop=1;jettySize=auto;html=1;exitX=1;exitY=0.75;exitDx=0;exitDy=0;entryX=0.5;entryY=0;entryDx=0;entryDy=0;" edge="1" parent="WIyWlLk6GJQsqaUBKTNV-1" source="WIyWlLk6GJQsqaUBKTNV-3" target="9SeCHtIBZzXsKNjQsnPQ-7">
          <mxGeometry relative="1" as="geometry" />
        </mxCell>
        <mxCell id="9SeCHtIBZzXsKNjQsnPQ-10" style="edgeStyle=orthogonalEdgeStyle;rounded=0;orthogonalLoop=1;jettySize=auto;html=1;exitX=1;exitY=0.5;exitDx=0;exitDy=0;entryX=0.5;entryY=0;entryDx=0;entryDy=0;" edge="1" parent="WIyWlLk6GJQsqaUBKTNV-1" source="WIyWlLk6GJQsqaUBKTNV-3" target="9SeCHtIBZzXsKNjQsnPQ-8">
          <mxGeometry relative="1" as="geometry" />
        </mxCell>
        <mxCell id="WIyWlLk6GJQsqaUBKTNV-3" value="Start/Title Screen" style="rounded=0;whiteSpace=wrap;html=1;fontSize=12;glass=0;strokeWidth=1;shadow=0;" parent="WIyWlLk6GJQsqaUBKTNV-1" vertex="1">
          <mxGeometry x="380" y="70" width="120" height="40" as="geometry" />
        </mxCell>
        <mxCell id="9SeCHtIBZzXsKNjQsnPQ-0" value="Play?" style="rhombus;whiteSpace=wrap;html=1;rounded=0;" vertex="1" parent="WIyWlLk6GJQsqaUBKTNV-1">
          <mxGeometry y="170" width="80" height="80" as="geometry" />
        </mxCell>
        <mxCell id="9SeCHtIBZzXsKNjQsnPQ-39" style="edgeStyle=orthogonalEdgeStyle;rounded=0;orthogonalLoop=1;jettySize=auto;html=1;exitX=0.5;exitY=1;exitDx=0;exitDy=0;entryX=0.5;entryY=0;entryDx=0;entryDy=0;" edge="1" parent="WIyWlLk6GJQsqaUBKTNV-1" source="9SeCHtIBZzXsKNjQsnPQ-1" target="9SeCHtIBZzXsKNjQsnPQ-38">
          <mxGeometry relative="1" as="geometry" />
        </mxCell>
        <mxCell id="9SeCHtIBZzXsKNjQsnPQ-1" value="Bone Index?" style="rhombus;whiteSpace=wrap;html=1;rounded=0;" vertex="1" parent="WIyWlLk6GJQsqaUBKTNV-1">
          <mxGeometry x="200" y="170" width="80" height="80" as="geometry" />
        </mxCell>
        <mxCell id="9SeCHtIBZzXsKNjQsnPQ-22" style="edgeStyle=orthogonalEdgeStyle;rounded=0;orthogonalLoop=1;jettySize=auto;html=1;exitX=0.5;exitY=1;exitDx=0;exitDy=0;entryX=0.5;entryY=0;entryDx=0;entryDy=0;" edge="1" parent="WIyWlLk6GJQsqaUBKTNV-1" source="9SeCHtIBZzXsKNjQsnPQ-5" target="9SeCHtIBZzXsKNjQsnPQ-21">
          <mxGeometry relative="1" as="geometry" />
        </mxCell>
        <mxCell id="9SeCHtIBZzXsKNjQsnPQ-5" value="Tutorial?" style="rhombus;whiteSpace=wrap;html=1;rounded=0;" vertex="1" parent="WIyWlLk6GJQsqaUBKTNV-1">
          <mxGeometry x="400" y="170" width="80" height="80" as="geometry" />
        </mxCell>
        <mxCell id="9SeCHtIBZzXsKNjQsnPQ-15" style="edgeStyle=orthogonalEdgeStyle;rounded=0;orthogonalLoop=1;jettySize=auto;html=1;exitX=0.5;exitY=1;exitDx=0;exitDy=0;entryX=0.5;entryY=0;entryDx=0;entryDy=0;" edge="1" parent="WIyWlLk6GJQsqaUBKTNV-1" source="9SeCHtIBZzXsKNjQsnPQ-7" target="9SeCHtIBZzXsKNjQsnPQ-14">
          <mxGeometry relative="1" as="geometry" />
        </mxCell>
        <mxCell id="9SeCHtIBZzXsKNjQsnPQ-13" style="edgeStyle=orthogonalEdgeStyle;rounded=0;orthogonalLoop=1;jettySize=auto;html=1;exitX=0.5;exitY=1;exitDx=0;exitDy=0;entryX=0.5;entryY=0;entryDx=0;entryDy=0;" edge="1" parent="WIyWlLk6GJQsqaUBKTNV-1" source="9SeCHtIBZzXsKNjQsnPQ-8" target="9SeCHtIBZzXsKNjQsnPQ-12">
          <mxGeometry relative="1" as="geometry" />
        </mxCell>
        <mxCell id="9SeCHtIBZzXsKNjQsnPQ-8" value="Quit?" style="rhombus;whiteSpace=wrap;html=1;rounded=0;" vertex="1" parent="WIyWlLk6GJQsqaUBKTNV-1">
          <mxGeometry x="747" y="170" width="80" height="80" as="geometry" />
        </mxCell>
        <mxCell id="9SeCHtIBZzXsKNjQsnPQ-12" value="End" style="rounded=0;whiteSpace=wrap;html=1;fontSize=12;glass=0;strokeWidth=1;shadow=0;" vertex="1" parent="WIyWlLk6GJQsqaUBKTNV-1">
          <mxGeometry x="727" y="370" width="120" height="40" as="geometry" />
        </mxCell>
        <mxCell id="9SeCHtIBZzXsKNjQsnPQ-17" style="edgeStyle=orthogonalEdgeStyle;rounded=0;orthogonalLoop=1;jettySize=auto;html=1;exitX=0.5;exitY=1;exitDx=0;exitDy=0;" edge="1" parent="WIyWlLk6GJQsqaUBKTNV-1" source="9SeCHtIBZzXsKNjQsnPQ-14" target="9SeCHtIBZzXsKNjQsnPQ-16">
          <mxGeometry relative="1" as="geometry" />
        </mxCell>
        <mxCell id="9SeCHtIBZzXsKNjQsnPQ-14" value="Selection Screen" style="rounded=0;whiteSpace=wrap;html=1;" vertex="1" parent="WIyWlLk6GJQsqaUBKTNV-1">
          <mxGeometry x="560" y="320" width="120" height="40" as="geometry" />
        </mxCell>
        <mxCell id="9SeCHtIBZzXsKNjQsnPQ-20" style="edgeStyle=orthogonalEdgeStyle;rounded=0;orthogonalLoop=1;jettySize=auto;html=1;exitX=0.5;exitY=1;exitDx=0;exitDy=0;entryX=0.5;entryY=0;entryDx=0;entryDy=0;" edge="1" parent="WIyWlLk6GJQsqaUBKTNV-1" source="9SeCHtIBZzXsKNjQsnPQ-16" target="WIyWlLk6GJQsqaUBKTNV-3">
          <mxGeometry relative="1" as="geometry" />
        </mxCell>
        <mxCell id="9SeCHtIBZzXsKNjQsnPQ-16" value="Back?" style="rhombus;whiteSpace=wrap;html=1;rounded=0;" vertex="1" parent="WIyWlLk6GJQsqaUBKTNV-1">
          <mxGeometry x="600" y="480" width="80" height="80" as="geometry" />
        </mxCell>
        <mxCell id="9SeCHtIBZzXsKNjQsnPQ-7" value="Credits?" style="rhombus;whiteSpace=wrap;html=1;rounded=0;" vertex="1" parent="WIyWlLk6GJQsqaUBKTNV-1">
          <mxGeometry x="570" y="170" width="80" height="80" as="geometry" />
        </mxCell>
        <mxCell id="9SeCHtIBZzXsKNjQsnPQ-26" style="edgeStyle=orthogonalEdgeStyle;rounded=0;orthogonalLoop=1;jettySize=auto;html=1;exitX=0;exitY=1;exitDx=0;exitDy=0;entryX=0.5;entryY=0;entryDx=0;entryDy=0;" edge="1" parent="WIyWlLk6GJQsqaUBKTNV-1" source="9SeCHtIBZzXsKNjQsnPQ-21" target="9SeCHtIBZzXsKNjQsnPQ-23">
          <mxGeometry relative="1" as="geometry" />
        </mxCell>
        <mxCell id="9SeCHtIBZzXsKNjQsnPQ-27" style="edgeStyle=orthogonalEdgeStyle;rounded=0;orthogonalLoop=1;jettySize=auto;html=1;exitX=1;exitY=1;exitDx=0;exitDy=0;entryX=0.5;entryY=0;entryDx=0;entryDy=0;" edge="1" parent="WIyWlLk6GJQsqaUBKTNV-1" source="9SeCHtIBZzXsKNjQsnPQ-21" target="9SeCHtIBZzXsKNjQsnPQ-24">
          <mxGeometry relative="1" as="geometry" />
        </mxCell>
        <mxCell id="9SeCHtIBZzXsKNjQsnPQ-36" style="edgeStyle=orthogonalEdgeStyle;rounded=0;orthogonalLoop=1;jettySize=auto;html=1;exitX=0;exitY=0;exitDx=0;exitDy=0;entryX=0.5;entryY=0;entryDx=0;entryDy=0;" edge="1" parent="WIyWlLk6GJQsqaUBKTNV-1" source="9SeCHtIBZzXsKNjQsnPQ-21" target="9SeCHtIBZzXsKNjQsnPQ-34">
          <mxGeometry relative="1" as="geometry">
            <Array as="points">
              <mxPoint x="400" y="290" />
              <mxPoint x="400" y="270" />
              <mxPoint x="350" y="270" />
              <mxPoint x="350" y="480" />
              <mxPoint x="440" y="480" />
            </Array>
          </mxGeometry>
        </mxCell>
        <mxCell id="9SeCHtIBZzXsKNjQsnPQ-21" value="Tutorial" style="rounded=0;whiteSpace=wrap;html=1;" vertex="1" parent="WIyWlLk6GJQsqaUBKTNV-1">
          <mxGeometry x="380" y="290" width="120" height="40" as="geometry" />
        </mxCell>
        <mxCell id="9SeCHtIBZzXsKNjQsnPQ-30" style="edgeStyle=orthogonalEdgeStyle;rounded=0;orthogonalLoop=1;jettySize=auto;html=1;exitX=0.5;exitY=1;exitDx=0;exitDy=0;entryX=0.083;entryY=0;entryDx=0;entryDy=0;entryPerimeter=0;" edge="1" parent="WIyWlLk6GJQsqaUBKTNV-1" source="9SeCHtIBZzXsKNjQsnPQ-23" target="9SeCHtIBZzXsKNjQsnPQ-28">
          <mxGeometry relative="1" as="geometry" />
        </mxCell>
        <mxCell id="9SeCHtIBZzXsKNjQsnPQ-23" value="Increment Up?" style="rhombus;whiteSpace=wrap;html=1;rounded=0;" vertex="1" parent="WIyWlLk6GJQsqaUBKTNV-1">
          <mxGeometry x="360" y="350" width="60" height="60" as="geometry" />
        </mxCell>
        <mxCell id="9SeCHtIBZzXsKNjQsnPQ-29" style="edgeStyle=orthogonalEdgeStyle;rounded=0;orthogonalLoop=1;jettySize=auto;html=1;exitX=0.5;exitY=1;exitDx=0;exitDy=0;entryX=0.917;entryY=0;entryDx=0;entryDy=0;entryPerimeter=0;" edge="1" parent="WIyWlLk6GJQsqaUBKTNV-1" source="9SeCHtIBZzXsKNjQsnPQ-24" target="9SeCHtIBZzXsKNjQsnPQ-28">
          <mxGeometry relative="1" as="geometry" />
        </mxCell>
        <mxCell id="9SeCHtIBZzXsKNjQsnPQ-24" value="Increment Down?" style="rhombus;whiteSpace=wrap;html=1;rounded=0;" vertex="1" parent="WIyWlLk6GJQsqaUBKTNV-1">
          <mxGeometry x="460" y="350" width="60" height="60" as="geometry" />
        </mxCell>
        <mxCell id="9SeCHtIBZzXsKNjQsnPQ-32" style="edgeStyle=orthogonalEdgeStyle;rounded=0;orthogonalLoop=1;jettySize=auto;html=1;exitX=0;exitY=0.5;exitDx=0;exitDy=0;entryX=0;entryY=0.5;entryDx=0;entryDy=0;" edge="1" parent="WIyWlLk6GJQsqaUBKTNV-1" source="9SeCHtIBZzXsKNjQsnPQ-28" target="9SeCHtIBZzXsKNjQsnPQ-21">
          <mxGeometry relative="1" as="geometry" />
        </mxCell>
        <mxCell id="9SeCHtIBZzXsKNjQsnPQ-33" style="edgeStyle=orthogonalEdgeStyle;rounded=0;orthogonalLoop=1;jettySize=auto;html=1;exitX=1;exitY=0.5;exitDx=0;exitDy=0;entryX=1;entryY=0.5;entryDx=0;entryDy=0;" edge="1" parent="WIyWlLk6GJQsqaUBKTNV-1" source="9SeCHtIBZzXsKNjQsnPQ-28" target="9SeCHtIBZzXsKNjQsnPQ-21">
          <mxGeometry relative="1" as="geometry" />
        </mxCell>
        <mxCell id="9SeCHtIBZzXsKNjQsnPQ-28" value="Change Slide" style="rounded=0;whiteSpace=wrap;html=1;" vertex="1" parent="WIyWlLk6GJQsqaUBKTNV-1">
          <mxGeometry x="380" y="430" width="120" height="40" as="geometry" />
        </mxCell>
        <mxCell id="9SeCHtIBZzXsKNjQsnPQ-37" style="edgeStyle=orthogonalEdgeStyle;rounded=0;orthogonalLoop=1;jettySize=auto;html=1;exitX=0.5;exitY=1;exitDx=0;exitDy=0;entryX=0.5;entryY=0;entryDx=0;entryDy=0;" edge="1" parent="WIyWlLk6GJQsqaUBKTNV-1" source="9SeCHtIBZzXsKNjQsnPQ-34" target="WIyWlLk6GJQsqaUBKTNV-3">
          <mxGeometry relative="1" as="geometry">
            <Array as="points">
              <mxPoint x="440" y="580" />
              <mxPoint x="330" y="580" />
              <mxPoint x="330" y="50" />
              <mxPoint x="440" y="50" />
            </Array>
          </mxGeometry>
        </mxCell>
        <mxCell id="9SeCHtIBZzXsKNjQsnPQ-34" value="Back?" style="rhombus;whiteSpace=wrap;html=1;rounded=0;" vertex="1" parent="WIyWlLk6GJQsqaUBKTNV-1">
          <mxGeometry x="410" y="500" width="60" height="60" as="geometry" />
        </mxCell>
        <mxCell id="9SeCHtIBZzXsKNjQsnPQ-50" style="edgeStyle=orthogonalEdgeStyle;rounded=0;orthogonalLoop=1;jettySize=auto;html=1;exitX=0;exitY=1;exitDx=0;exitDy=0;entryX=0.5;entryY=0;entryDx=0;entryDy=0;" edge="1" parent="WIyWlLk6GJQsqaUBKTNV-1" source="9SeCHtIBZzXsKNjQsnPQ-38" target="9SeCHtIBZzXsKNjQsnPQ-49">
          <mxGeometry relative="1" as="geometry" />
        </mxCell>
        <mxCell id="9SeCHtIBZzXsKNjQsnPQ-38" value="Selection Screen" style="rounded=0;whiteSpace=wrap;html=1;" vertex="1" parent="WIyWlLk6GJQsqaUBKTNV-1">
          <mxGeometry x="170" y="320" width="120" height="40" as="geometry" />
        </mxCell>
        <mxCell id="9SeCHtIBZzXsKNjQsnPQ-40" value="Human Easy?" style="rhombus;whiteSpace=wrap;html=1;rounded=0;" vertex="1" parent="WIyWlLk6GJQsqaUBKTNV-1">
          <mxGeometry x="60" y="460" width="60" height="60" as="geometry" />
        </mxCell>
        <mxCell id="9SeCHtIBZzXsKNjQsnPQ-41" value="Human Normal?" style="rhombus;whiteSpace=wrap;html=1;rounded=0;" vertex="1" parent="WIyWlLk6GJQsqaUBKTNV-1">
          <mxGeometry x="150" y="460" width="60" height="60" as="geometry" />
        </mxCell>
        <mxCell id="9SeCHtIBZzXsKNjQsnPQ-42" value="Human Hard?" style="rhombus;whiteSpace=wrap;html=1;rounded=0;" vertex="1" parent="WIyWlLk6GJQsqaUBKTNV-1">
          <mxGeometry x="240" y="460" width="60" height="60" as="geometry" />
        </mxCell>
        <mxCell id="9SeCHtIBZzXsKNjQsnPQ-43" value="Cat&lt;br&gt;Hard?" style="rhombus;whiteSpace=wrap;html=1;rounded=0;" vertex="1" parent="WIyWlLk6GJQsqaUBKTNV-1">
          <mxGeometry x="240" y="540" width="60" height="60" as="geometry" />
        </mxCell>
        <mxCell id="9SeCHtIBZzXsKNjQsnPQ-44" value="Cat Normal?" style="rhombus;whiteSpace=wrap;html=1;rounded=0;" vertex="1" parent="WIyWlLk6GJQsqaUBKTNV-1">
          <mxGeometry x="150" y="540" width="60" height="60" as="geometry" />
        </mxCell>
        <mxCell id="9SeCHtIBZzXsKNjQsnPQ-45" value="Cat &lt;br&gt;Easy?" style="rhombus;whiteSpace=wrap;html=1;rounded=0;" vertex="1" parent="WIyWlLk6GJQsqaUBKTNV-1">
          <mxGeometry x="60" y="540" width="60" height="60" as="geometry" />
        </mxCell>
        <mxCell id="9SeCHtIBZzXsKNjQsnPQ-46" value="T.Rex&lt;br&gt;Easy?" style="rhombus;whiteSpace=wrap;html=1;rounded=0;" vertex="1" parent="WIyWlLk6GJQsqaUBKTNV-1">
          <mxGeometry x="60" y="625" width="60" height="60" as="geometry" />
        </mxCell>
        <mxCell id="9SeCHtIBZzXsKNjQsnPQ-47" value="T.Rex&lt;br&gt;Normal?" style="rhombus;whiteSpace=wrap;html=1;rounded=0;" vertex="1" parent="WIyWlLk6GJQsqaUBKTNV-1">
          <mxGeometry x="150" y="624.5" width="60" height="60" as="geometry" />
        </mxCell>
        <mxCell id="9SeCHtIBZzXsKNjQsnPQ-48" value="T.Rex&lt;br&gt;Hard?" style="rhombus;whiteSpace=wrap;html=1;rounded=0;" vertex="1" parent="WIyWlLk6GJQsqaUBKTNV-1">
          <mxGeometry x="240" y="624.5" width="60" height="60" as="geometry" />
        </mxCell>
        <mxCell id="9SeCHtIBZzXsKNjQsnPQ-54" style="edgeStyle=orthogonalEdgeStyle;rounded=0;orthogonalLoop=1;jettySize=auto;html=1;exitX=0;exitY=0.5;exitDx=0;exitDy=0;entryX=1;entryY=0.5;entryDx=0;entryDy=0;" edge="1" parent="WIyWlLk6GJQsqaUBKTNV-1" source="9SeCHtIBZzXsKNjQsnPQ-49" target="9SeCHtIBZzXsKNjQsnPQ-45">
          <mxGeometry relative="1" as="geometry">
            <Array as="points">
              <mxPoint x="130" y="410" />
              <mxPoint x="130" y="570" />
            </Array>
          </mxGeometry>
        </mxCell>
        <mxCell id="9SeCHtIBZzXsKNjQsnPQ-55" style="edgeStyle=orthogonalEdgeStyle;rounded=0;orthogonalLoop=1;jettySize=auto;html=1;exitX=0;exitY=0.5;exitDx=0;exitDy=0;entryX=0;entryY=0.5;entryDx=0;entryDy=0;" edge="1" parent="WIyWlLk6GJQsqaUBKTNV-1" source="9SeCHtIBZzXsKNjQsnPQ-49" target="9SeCHtIBZzXsKNjQsnPQ-44">
          <mxGeometry relative="1" as="geometry" />
        </mxCell>
        <mxCell id="9SeCHtIBZzXsKNjQsnPQ-56" style="edgeStyle=orthogonalEdgeStyle;rounded=0;orthogonalLoop=1;jettySize=auto;html=1;exitX=0;exitY=0.5;exitDx=0;exitDy=0;entryX=1;entryY=0.5;entryDx=0;entryDy=0;" edge="1" parent="WIyWlLk6GJQsqaUBKTNV-1" source="9SeCHtIBZzXsKNjQsnPQ-49" target="9SeCHtIBZzXsKNjQsnPQ-46">
          <mxGeometry relative="1" as="geometry">
            <Array as="points">
              <mxPoint x="130" y="410" />
              <mxPoint x="130" y="655" />
            </Array>
          </mxGeometry>
        </mxCell>
        <mxCell id="9SeCHtIBZzXsKNjQsnPQ-57" style="edgeStyle=orthogonalEdgeStyle;rounded=0;orthogonalLoop=1;jettySize=auto;html=1;exitX=0;exitY=0.5;exitDx=0;exitDy=0;entryX=0;entryY=0.5;entryDx=0;entryDy=0;" edge="1" parent="WIyWlLk6GJQsqaUBKTNV-1" source="9SeCHtIBZzXsKNjQsnPQ-49" target="9SeCHtIBZzXsKNjQsnPQ-47">
          <mxGeometry relative="1" as="geometry" />
        </mxCell>
        <mxCell id="9SeCHtIBZzXsKNjQsnPQ-58" style="edgeStyle=orthogonalEdgeStyle;rounded=0;orthogonalLoop=1;jettySize=auto;html=1;exitX=1;exitY=0.5;exitDx=0;exitDy=0;entryX=1;entryY=0.5;entryDx=0;entryDy=0;" edge="1" parent="WIyWlLk6GJQsqaUBKTNV-1" source="9SeCHtIBZzXsKNjQsnPQ-49" target="9SeCHtIBZzXsKNjQsnPQ-41">
          <mxGeometry relative="1" as="geometry" />
        </mxCell>
        <mxCell id="9SeCHtIBZzXsKNjQsnPQ-59" style="edgeStyle=orthogonalEdgeStyle;rounded=0;orthogonalLoop=1;jettySize=auto;html=1;exitX=1;exitY=0.5;exitDx=0;exitDy=0;entryX=0;entryY=0.5;entryDx=0;entryDy=0;" edge="1" parent="WIyWlLk6GJQsqaUBKTNV-1" source="9SeCHtIBZzXsKNjQsnPQ-49" target="9SeCHtIBZzXsKNjQsnPQ-42">
          <mxGeometry relative="1" as="geometry">
            <Array as="points">
              <mxPoint x="230" y="410" />
              <mxPoint x="230" y="490" />
            </Array>
          </mxGeometry>
        </mxCell>
        <mxCell id="9SeCHtIBZzXsKNjQsnPQ-60" style="edgeStyle=orthogonalEdgeStyle;rounded=0;orthogonalLoop=1;jettySize=auto;html=1;exitX=0;exitY=0.5;exitDx=0;exitDy=0;entryX=1;entryY=0.5;entryDx=0;entryDy=0;" edge="1" parent="WIyWlLk6GJQsqaUBKTNV-1" source="9SeCHtIBZzXsKNjQsnPQ-49" target="9SeCHtIBZzXsKNjQsnPQ-40">
          <mxGeometry relative="1" as="geometry">
            <Array as="points">
              <mxPoint x="130" y="410" />
              <mxPoint x="130" y="490" />
            </Array>
          </mxGeometry>
        </mxCell>
        <mxCell id="9SeCHtIBZzXsKNjQsnPQ-61" style="edgeStyle=orthogonalEdgeStyle;rounded=0;orthogonalLoop=1;jettySize=auto;html=1;exitX=0;exitY=0.5;exitDx=0;exitDy=0;entryX=0;entryY=0.5;entryDx=0;entryDy=0;" edge="1" parent="WIyWlLk6GJQsqaUBKTNV-1" source="9SeCHtIBZzXsKNjQsnPQ-49" target="9SeCHtIBZzXsKNjQsnPQ-41">
          <mxGeometry relative="1" as="geometry" />
        </mxCell>
        <mxCell id="9SeCHtIBZzXsKNjQsnPQ-62" style="edgeStyle=orthogonalEdgeStyle;rounded=0;orthogonalLoop=1;jettySize=auto;html=1;exitX=1;exitY=0.5;exitDx=0;exitDy=0;entryX=1;entryY=0.5;entryDx=0;entryDy=0;" edge="1" parent="WIyWlLk6GJQsqaUBKTNV-1" source="9SeCHtIBZzXsKNjQsnPQ-49" target="9SeCHtIBZzXsKNjQsnPQ-44">
          <mxGeometry relative="1" as="geometry" />
        </mxCell>
        <mxCell id="9SeCHtIBZzXsKNjQsnPQ-63" style="edgeStyle=orthogonalEdgeStyle;rounded=0;orthogonalLoop=1;jettySize=auto;html=1;exitX=1;exitY=0.5;exitDx=0;exitDy=0;entryX=1;entryY=0.5;entryDx=0;entryDy=0;" edge="1" parent="WIyWlLk6GJQsqaUBKTNV-1" source="9SeCHtIBZzXsKNjQsnPQ-49" target="9SeCHtIBZzXsKNjQsnPQ-47">
          <mxGeometry relative="1" as="geometry" />
        </mxCell>
        <mxCell id="9SeCHtIBZzXsKNjQsnPQ-64" style="edgeStyle=orthogonalEdgeStyle;rounded=0;orthogonalLoop=1;jettySize=auto;html=1;exitX=1;exitY=0.5;exitDx=0;exitDy=0;entryX=0;entryY=0.5;entryDx=0;entryDy=0;" edge="1" parent="WIyWlLk6GJQsqaUBKTNV-1" source="9SeCHtIBZzXsKNjQsnPQ-49" target="9SeCHtIBZzXsKNjQsnPQ-43">
          <mxGeometry relative="1" as="geometry">
            <Array as="points">
              <mxPoint x="230" y="410" />
              <mxPoint x="230" y="570" />
            </Array>
          </mxGeometry>
        </mxCell>
        <mxCell id="9SeCHtIBZzXsKNjQsnPQ-65" style="edgeStyle=orthogonalEdgeStyle;rounded=0;orthogonalLoop=1;jettySize=auto;html=1;exitX=1;exitY=0.5;exitDx=0;exitDy=0;entryX=0;entryY=0.5;entryDx=0;entryDy=0;" edge="1" parent="WIyWlLk6GJQsqaUBKTNV-1" source="9SeCHtIBZzXsKNjQsnPQ-49" target="9SeCHtIBZzXsKNjQsnPQ-48">
          <mxGeometry relative="1" as="geometry">
            <Array as="points">
              <mxPoint x="230" y="410" />
              <mxPoint x="230" y="655" />
            </Array>
          </mxGeometry>
        </mxCell>
        <mxCell id="9SeCHtIBZzXsKNjQsnPQ-49" value="Selection?" style="rhombus;whiteSpace=wrap;html=1;rounded=0;" vertex="1" parent="WIyWlLk6GJQsqaUBKTNV-1">
          <mxGeometry x="150" y="380" width="60" height="60" as="geometry" />
        </mxCell>
        <mxCell id="9SeCHtIBZzXsKNjQsnPQ-91" style="edgeStyle=orthogonalEdgeStyle;rounded=0;orthogonalLoop=1;jettySize=auto;html=1;exitX=0.5;exitY=1;exitDx=0;exitDy=0;entryX=0.5;entryY=0;entryDx=0;entryDy=0;" edge="1" target="9SeCHtIBZzXsKNjQsnPQ-93" parent="WIyWlLk6GJQsqaUBKTNV-1" source="9SeCHtIBZzXsKNjQsnPQ-0">
          <mxGeometry relative="1" as="geometry">
            <mxPoint x="-50" y="250" as="sourcePoint" />
          </mxGeometry>
        </mxCell>
        <mxCell id="9SeCHtIBZzXsKNjQsnPQ-92" style="edgeStyle=orthogonalEdgeStyle;rounded=0;orthogonalLoop=1;jettySize=auto;html=1;exitX=0;exitY=1;exitDx=0;exitDy=0;entryX=0.5;entryY=0;entryDx=0;entryDy=0;" edge="1" source="9SeCHtIBZzXsKNjQsnPQ-93" target="9SeCHtIBZzXsKNjQsnPQ-115" parent="WIyWlLk6GJQsqaUBKTNV-1">
          <mxGeometry relative="1" as="geometry" />
        </mxCell>
        <mxCell id="9SeCHtIBZzXsKNjQsnPQ-93" value="Selection Screen" style="rounded=0;whiteSpace=wrap;html=1;" vertex="1" parent="WIyWlLk6GJQsqaUBKTNV-1">
          <mxGeometry x="-120" y="320" width="120" height="40" as="geometry" />
        </mxCell>
        <mxCell id="9SeCHtIBZzXsKNjQsnPQ-94" value="Human Easy?" style="rhombus;whiteSpace=wrap;html=1;rounded=0;" vertex="1" parent="WIyWlLk6GJQsqaUBKTNV-1">
          <mxGeometry x="-230" y="460" width="60" height="60" as="geometry" />
        </mxCell>
        <mxCell id="9SeCHtIBZzXsKNjQsnPQ-95" value="Human Normal?" style="rhombus;whiteSpace=wrap;html=1;rounded=0;" vertex="1" parent="WIyWlLk6GJQsqaUBKTNV-1">
          <mxGeometry x="-140" y="460" width="60" height="60" as="geometry" />
        </mxCell>
        <mxCell id="9SeCHtIBZzXsKNjQsnPQ-96" value="Human Hard?" style="rhombus;whiteSpace=wrap;html=1;rounded=0;" vertex="1" parent="WIyWlLk6GJQsqaUBKTNV-1">
          <mxGeometry x="-50" y="460" width="60" height="60" as="geometry" />
        </mxCell>
        <mxCell id="9SeCHtIBZzXsKNjQsnPQ-97" value="Cat&lt;br&gt;Hard?" style="rhombus;whiteSpace=wrap;html=1;rounded=0;" vertex="1" parent="WIyWlLk6GJQsqaUBKTNV-1">
          <mxGeometry x="-50" y="540" width="60" height="60" as="geometry" />
        </mxCell>
        <mxCell id="9SeCHtIBZzXsKNjQsnPQ-98" value="Cat Normal?" style="rhombus;whiteSpace=wrap;html=1;rounded=0;" vertex="1" parent="WIyWlLk6GJQsqaUBKTNV-1">
          <mxGeometry x="-140" y="540" width="60" height="60" as="geometry" />
        </mxCell>
        <mxCell id="9SeCHtIBZzXsKNjQsnPQ-99" value="Cat &lt;br&gt;Easy?" style="rhombus;whiteSpace=wrap;html=1;rounded=0;" vertex="1" parent="WIyWlLk6GJQsqaUBKTNV-1">
          <mxGeometry x="-230" y="540" width="60" height="60" as="geometry" />
        </mxCell>
        <mxCell id="9SeCHtIBZzXsKNjQsnPQ-100" value="T.Rex&lt;br&gt;Easy?" style="rhombus;whiteSpace=wrap;html=1;rounded=0;" vertex="1" parent="WIyWlLk6GJQsqaUBKTNV-1">
          <mxGeometry x="-230" y="625" width="60" height="60" as="geometry" />
        </mxCell>
        <mxCell id="9SeCHtIBZzXsKNjQsnPQ-139" style="edgeStyle=orthogonalEdgeStyle;orthogonalLoop=1;jettySize=auto;html=1;exitX=0.5;exitY=1;exitDx=0;exitDy=0;entryX=0.5;entryY=0;entryDx=0;entryDy=0;rounded=0;" edge="1" parent="WIyWlLk6GJQsqaUBKTNV-1" source="9SeCHtIBZzXsKNjQsnPQ-101" target="9SeCHtIBZzXsKNjQsnPQ-138">
          <mxGeometry relative="1" as="geometry" />
        </mxCell>
        <mxCell id="9SeCHtIBZzXsKNjQsnPQ-101" value="T.Rex&lt;br&gt;Normal?" style="rhombus;whiteSpace=wrap;html=1;rounded=0;" vertex="1" parent="WIyWlLk6GJQsqaUBKTNV-1">
          <mxGeometry x="-140" y="624.5" width="60" height="60" as="geometry" />
        </mxCell>
        <mxCell id="9SeCHtIBZzXsKNjQsnPQ-102" value="T.Rex&lt;br&gt;Hard?" style="rhombus;whiteSpace=wrap;html=1;rounded=0;" vertex="1" parent="WIyWlLk6GJQsqaUBKTNV-1">
          <mxGeometry x="-50" y="624.5" width="60" height="60" as="geometry" />
        </mxCell>
        <mxCell id="9SeCHtIBZzXsKNjQsnPQ-103" style="edgeStyle=orthogonalEdgeStyle;rounded=0;orthogonalLoop=1;jettySize=auto;html=1;exitX=0;exitY=0.5;exitDx=0;exitDy=0;entryX=1;entryY=0.5;entryDx=0;entryDy=0;" edge="1" source="9SeCHtIBZzXsKNjQsnPQ-115" target="9SeCHtIBZzXsKNjQsnPQ-99" parent="WIyWlLk6GJQsqaUBKTNV-1">
          <mxGeometry relative="1" as="geometry">
            <Array as="points">
              <mxPoint x="-160" y="410" />
              <mxPoint x="-160" y="570" />
            </Array>
          </mxGeometry>
        </mxCell>
        <mxCell id="9SeCHtIBZzXsKNjQsnPQ-104" style="edgeStyle=orthogonalEdgeStyle;rounded=0;orthogonalLoop=1;jettySize=auto;html=1;exitX=0;exitY=0.5;exitDx=0;exitDy=0;entryX=0;entryY=0.5;entryDx=0;entryDy=0;" edge="1" source="9SeCHtIBZzXsKNjQsnPQ-115" target="9SeCHtIBZzXsKNjQsnPQ-98" parent="WIyWlLk6GJQsqaUBKTNV-1">
          <mxGeometry relative="1" as="geometry" />
        </mxCell>
        <mxCell id="9SeCHtIBZzXsKNjQsnPQ-105" style="edgeStyle=orthogonalEdgeStyle;rounded=0;orthogonalLoop=1;jettySize=auto;html=1;exitX=0;exitY=0.5;exitDx=0;exitDy=0;entryX=1;entryY=0.5;entryDx=0;entryDy=0;" edge="1" source="9SeCHtIBZzXsKNjQsnPQ-115" target="9SeCHtIBZzXsKNjQsnPQ-100" parent="WIyWlLk6GJQsqaUBKTNV-1">
          <mxGeometry relative="1" as="geometry">
            <Array as="points">
              <mxPoint x="-160" y="410" />
              <mxPoint x="-160" y="655" />
            </Array>
          </mxGeometry>
        </mxCell>
        <mxCell id="9SeCHtIBZzXsKNjQsnPQ-106" style="edgeStyle=orthogonalEdgeStyle;rounded=0;orthogonalLoop=1;jettySize=auto;html=1;exitX=0;exitY=0.5;exitDx=0;exitDy=0;entryX=0;entryY=0.5;entryDx=0;entryDy=0;" edge="1" source="9SeCHtIBZzXsKNjQsnPQ-115" target="9SeCHtIBZzXsKNjQsnPQ-101" parent="WIyWlLk6GJQsqaUBKTNV-1">
          <mxGeometry relative="1" as="geometry" />
        </mxCell>
        <mxCell id="9SeCHtIBZzXsKNjQsnPQ-107" style="edgeStyle=orthogonalEdgeStyle;rounded=0;orthogonalLoop=1;jettySize=auto;html=1;exitX=1;exitY=0.5;exitDx=0;exitDy=0;entryX=1;entryY=0.5;entryDx=0;entryDy=0;" edge="1" source="9SeCHtIBZzXsKNjQsnPQ-115" target="9SeCHtIBZzXsKNjQsnPQ-95" parent="WIyWlLk6GJQsqaUBKTNV-1">
          <mxGeometry relative="1" as="geometry" />
        </mxCell>
        <mxCell id="9SeCHtIBZzXsKNjQsnPQ-108" style="edgeStyle=orthogonalEdgeStyle;rounded=0;orthogonalLoop=1;jettySize=auto;html=1;exitX=1;exitY=0.5;exitDx=0;exitDy=0;entryX=0;entryY=0.5;entryDx=0;entryDy=0;" edge="1" source="9SeCHtIBZzXsKNjQsnPQ-115" target="9SeCHtIBZzXsKNjQsnPQ-96" parent="WIyWlLk6GJQsqaUBKTNV-1">
          <mxGeometry relative="1" as="geometry">
            <Array as="points">
              <mxPoint x="-60" y="410" />
              <mxPoint x="-60" y="490" />
            </Array>
          </mxGeometry>
        </mxCell>
        <mxCell id="9SeCHtIBZzXsKNjQsnPQ-109" style="edgeStyle=orthogonalEdgeStyle;rounded=0;orthogonalLoop=1;jettySize=auto;html=1;exitX=0;exitY=0.5;exitDx=0;exitDy=0;entryX=1;entryY=0.5;entryDx=0;entryDy=0;" edge="1" source="9SeCHtIBZzXsKNjQsnPQ-115" target="9SeCHtIBZzXsKNjQsnPQ-94" parent="WIyWlLk6GJQsqaUBKTNV-1">
          <mxGeometry relative="1" as="geometry">
            <Array as="points">
              <mxPoint x="-160" y="410" />
              <mxPoint x="-160" y="490" />
            </Array>
          </mxGeometry>
        </mxCell>
        <mxCell id="9SeCHtIBZzXsKNjQsnPQ-110" style="edgeStyle=orthogonalEdgeStyle;rounded=0;orthogonalLoop=1;jettySize=auto;html=1;exitX=0;exitY=0.5;exitDx=0;exitDy=0;entryX=0;entryY=0.5;entryDx=0;entryDy=0;" edge="1" source="9SeCHtIBZzXsKNjQsnPQ-115" target="9SeCHtIBZzXsKNjQsnPQ-95" parent="WIyWlLk6GJQsqaUBKTNV-1">
          <mxGeometry relative="1" as="geometry" />
        </mxCell>
        <mxCell id="9SeCHtIBZzXsKNjQsnPQ-111" style="edgeStyle=orthogonalEdgeStyle;rounded=0;orthogonalLoop=1;jettySize=auto;html=1;exitX=1;exitY=0.5;exitDx=0;exitDy=0;entryX=1;entryY=0.5;entryDx=0;entryDy=0;" edge="1" source="9SeCHtIBZzXsKNjQsnPQ-115" target="9SeCHtIBZzXsKNjQsnPQ-98" parent="WIyWlLk6GJQsqaUBKTNV-1">
          <mxGeometry relative="1" as="geometry" />
        </mxCell>
        <mxCell id="9SeCHtIBZzXsKNjQsnPQ-112" style="edgeStyle=orthogonalEdgeStyle;rounded=0;orthogonalLoop=1;jettySize=auto;html=1;exitX=1;exitY=0.5;exitDx=0;exitDy=0;entryX=1;entryY=0.5;entryDx=0;entryDy=0;" edge="1" source="9SeCHtIBZzXsKNjQsnPQ-115" target="9SeCHtIBZzXsKNjQsnPQ-101" parent="WIyWlLk6GJQsqaUBKTNV-1">
          <mxGeometry relative="1" as="geometry" />
        </mxCell>
        <mxCell id="9SeCHtIBZzXsKNjQsnPQ-113" style="edgeStyle=orthogonalEdgeStyle;rounded=0;orthogonalLoop=1;jettySize=auto;html=1;exitX=1;exitY=0.5;exitDx=0;exitDy=0;entryX=0;entryY=0.5;entryDx=0;entryDy=0;" edge="1" source="9SeCHtIBZzXsKNjQsnPQ-115" target="9SeCHtIBZzXsKNjQsnPQ-97" parent="WIyWlLk6GJQsqaUBKTNV-1">
          <mxGeometry relative="1" as="geometry">
            <Array as="points">
              <mxPoint x="-60" y="410" />
              <mxPoint x="-60" y="570" />
            </Array>
          </mxGeometry>
        </mxCell>
        <mxCell id="9SeCHtIBZzXsKNjQsnPQ-114" style="edgeStyle=orthogonalEdgeStyle;rounded=0;orthogonalLoop=1;jettySize=auto;html=1;exitX=1;exitY=0.5;exitDx=0;exitDy=0;entryX=0;entryY=0.5;entryDx=0;entryDy=0;" edge="1" source="9SeCHtIBZzXsKNjQsnPQ-115" target="9SeCHtIBZzXsKNjQsnPQ-102" parent="WIyWlLk6GJQsqaUBKTNV-1">
          <mxGeometry relative="1" as="geometry">
            <Array as="points">
              <mxPoint x="-60" y="410" />
              <mxPoint x="-60" y="655" />
            </Array>
          </mxGeometry>
        </mxCell>
        <mxCell id="9SeCHtIBZzXsKNjQsnPQ-115" value="Selection?" style="rhombus;whiteSpace=wrap;html=1;rounded=0;" vertex="1" parent="WIyWlLk6GJQsqaUBKTNV-1">
          <mxGeometry x="-140" y="380" width="60" height="60" as="geometry" />
        </mxCell>
        <mxCell id="9SeCHtIBZzXsKNjQsnPQ-125" style="edgeStyle=orthogonalEdgeStyle;rounded=0;orthogonalLoop=1;jettySize=auto;html=1;exitX=0;exitY=0.5;exitDx=0;exitDy=0;entryX=1;entryY=0.5;entryDx=0;entryDy=0;" edge="1" parent="WIyWlLk6GJQsqaUBKTNV-1">
          <mxGeometry relative="1" as="geometry">
            <mxPoint x="-140" y="730" as="sourcePoint" />
            <mxPoint x="-170" y="890" as="targetPoint" />
            <Array as="points">
              <mxPoint x="-160" y="730" />
              <mxPoint x="-160" y="890" />
            </Array>
          </mxGeometry>
        </mxCell>
        <mxCell id="9SeCHtIBZzXsKNjQsnPQ-126" style="edgeStyle=orthogonalEdgeStyle;rounded=0;orthogonalLoop=1;jettySize=auto;html=1;exitX=0;exitY=0.5;exitDx=0;exitDy=0;entryX=0;entryY=0.5;entryDx=0;entryDy=0;" edge="1" parent="WIyWlLk6GJQsqaUBKTNV-1">
          <mxGeometry relative="1" as="geometry">
            <mxPoint x="-140" y="730" as="sourcePoint" />
            <mxPoint x="-140" y="890" as="targetPoint" />
            <Array as="points">
              <mxPoint x="-160" y="730" />
              <mxPoint x="-160" y="890" />
            </Array>
          </mxGeometry>
        </mxCell>
        <mxCell id="9SeCHtIBZzXsKNjQsnPQ-127" style="edgeStyle=orthogonalEdgeStyle;rounded=0;orthogonalLoop=1;jettySize=auto;html=1;exitX=0;exitY=0.5;exitDx=0;exitDy=0;entryX=1;entryY=0.5;entryDx=0;entryDy=0;" edge="1" parent="WIyWlLk6GJQsqaUBKTNV-1">
          <mxGeometry relative="1" as="geometry">
            <mxPoint x="-140" y="730" as="sourcePoint" />
            <mxPoint x="-170" y="975" as="targetPoint" />
            <Array as="points">
              <mxPoint x="-160" y="730" />
              <mxPoint x="-160" y="975" />
            </Array>
          </mxGeometry>
        </mxCell>
        <mxCell id="9SeCHtIBZzXsKNjQsnPQ-128" style="edgeStyle=orthogonalEdgeStyle;rounded=0;orthogonalLoop=1;jettySize=auto;html=1;exitX=0;exitY=0.5;exitDx=0;exitDy=0;entryX=0;entryY=0.5;entryDx=0;entryDy=0;" edge="1" parent="WIyWlLk6GJQsqaUBKTNV-1">
          <mxGeometry relative="1" as="geometry">
            <mxPoint x="-140" y="730" as="sourcePoint" />
            <mxPoint x="-140" y="974.5" as="targetPoint" />
            <Array as="points">
              <mxPoint x="-160" y="730" />
              <mxPoint x="-160" y="975" />
            </Array>
          </mxGeometry>
        </mxCell>
        <mxCell id="9SeCHtIBZzXsKNjQsnPQ-129" style="edgeStyle=orthogonalEdgeStyle;rounded=0;orthogonalLoop=1;jettySize=auto;html=1;exitX=1;exitY=0.5;exitDx=0;exitDy=0;entryX=1;entryY=0.5;entryDx=0;entryDy=0;" edge="1" parent="WIyWlLk6GJQsqaUBKTNV-1">
          <mxGeometry relative="1" as="geometry">
            <mxPoint x="-80" y="730" as="sourcePoint" />
            <mxPoint x="-80" y="810" as="targetPoint" />
            <Array as="points">
              <mxPoint x="-60" y="730" />
              <mxPoint x="-60" y="810" />
            </Array>
          </mxGeometry>
        </mxCell>
        <mxCell id="9SeCHtIBZzXsKNjQsnPQ-130" style="edgeStyle=orthogonalEdgeStyle;rounded=0;orthogonalLoop=1;jettySize=auto;html=1;exitX=1;exitY=0.5;exitDx=0;exitDy=0;entryX=0;entryY=0.5;entryDx=0;entryDy=0;" edge="1" parent="WIyWlLk6GJQsqaUBKTNV-1">
          <mxGeometry relative="1" as="geometry">
            <mxPoint x="-80" y="730" as="sourcePoint" />
            <mxPoint x="-50" y="810" as="targetPoint" />
            <Array as="points">
              <mxPoint x="-60" y="730" />
              <mxPoint x="-60" y="810" />
            </Array>
          </mxGeometry>
        </mxCell>
        <mxCell id="9SeCHtIBZzXsKNjQsnPQ-131" style="edgeStyle=orthogonalEdgeStyle;rounded=0;orthogonalLoop=1;jettySize=auto;html=1;exitX=0;exitY=0.5;exitDx=0;exitDy=0;entryX=1;entryY=0.5;entryDx=0;entryDy=0;" edge="1" parent="WIyWlLk6GJQsqaUBKTNV-1">
          <mxGeometry relative="1" as="geometry">
            <mxPoint x="-140" y="730" as="sourcePoint" />
            <mxPoint x="-170" y="810" as="targetPoint" />
            <Array as="points">
              <mxPoint x="-160" y="730" />
              <mxPoint x="-160" y="810" />
            </Array>
          </mxGeometry>
        </mxCell>
        <mxCell id="9SeCHtIBZzXsKNjQsnPQ-132" style="edgeStyle=orthogonalEdgeStyle;rounded=0;orthogonalLoop=1;jettySize=auto;html=1;exitX=0;exitY=0.5;exitDx=0;exitDy=0;entryX=0;entryY=0.5;entryDx=0;entryDy=0;" edge="1" parent="WIyWlLk6GJQsqaUBKTNV-1">
          <mxGeometry relative="1" as="geometry">
            <mxPoint x="-140" y="730" as="sourcePoint" />
            <mxPoint x="-140" y="810" as="targetPoint" />
            <Array as="points">
              <mxPoint x="-160" y="730" />
              <mxPoint x="-160" y="810" />
            </Array>
          </mxGeometry>
        </mxCell>
        <mxCell id="9SeCHtIBZzXsKNjQsnPQ-133" style="edgeStyle=orthogonalEdgeStyle;rounded=0;orthogonalLoop=1;jettySize=auto;html=1;exitX=1;exitY=0.5;exitDx=0;exitDy=0;entryX=1;entryY=0.5;entryDx=0;entryDy=0;" edge="1" parent="WIyWlLk6GJQsqaUBKTNV-1">
          <mxGeometry relative="1" as="geometry">
            <mxPoint x="-80" y="730" as="sourcePoint" />
            <mxPoint x="-80" y="890" as="targetPoint" />
            <Array as="points">
              <mxPoint x="-60" y="730" />
              <mxPoint x="-60" y="890" />
            </Array>
          </mxGeometry>
        </mxCell>
        <mxCell id="9SeCHtIBZzXsKNjQsnPQ-134" style="edgeStyle=orthogonalEdgeStyle;rounded=0;orthogonalLoop=1;jettySize=auto;html=1;exitX=1;exitY=0.5;exitDx=0;exitDy=0;entryX=1;entryY=0.5;entryDx=0;entryDy=0;" edge="1" parent="WIyWlLk6GJQsqaUBKTNV-1">
          <mxGeometry relative="1" as="geometry">
            <mxPoint x="-80" y="730" as="sourcePoint" />
            <mxPoint x="-80" y="974.5" as="targetPoint" />
            <Array as="points">
              <mxPoint x="-60" y="730" />
              <mxPoint x="-60" y="975" />
            </Array>
          </mxGeometry>
        </mxCell>
        <mxCell id="9SeCHtIBZzXsKNjQsnPQ-135" style="edgeStyle=orthogonalEdgeStyle;rounded=0;orthogonalLoop=1;jettySize=auto;html=1;exitX=1;exitY=0.5;exitDx=0;exitDy=0;entryX=0;entryY=0.5;entryDx=0;entryDy=0;" edge="1" parent="WIyWlLk6GJQsqaUBKTNV-1">
          <mxGeometry relative="1" as="geometry">
            <mxPoint x="-80" y="730" as="sourcePoint" />
            <mxPoint x="-50" y="890" as="targetPoint" />
            <Array as="points">
              <mxPoint x="-60" y="730" />
              <mxPoint x="-60" y="890" />
            </Array>
          </mxGeometry>
        </mxCell>
        <mxCell id="9SeCHtIBZzXsKNjQsnPQ-136" style="edgeStyle=orthogonalEdgeStyle;rounded=0;orthogonalLoop=1;jettySize=auto;html=1;exitX=1;exitY=0.5;exitDx=0;exitDy=0;entryX=0;entryY=0.5;entryDx=0;entryDy=0;" edge="1" parent="WIyWlLk6GJQsqaUBKTNV-1">
          <mxGeometry relative="1" as="geometry">
            <mxPoint x="-80" y="730" as="sourcePoint" />
            <mxPoint x="-50" y="974.5" as="targetPoint" />
            <Array as="points">
              <mxPoint x="-60" y="730" />
              <mxPoint x="-60" y="975" />
            </Array>
          </mxGeometry>
        </mxCell>
        <mxCell id="9SeCHtIBZzXsKNjQsnPQ-138" value="Selection" style="shape=parallelogram;perimeter=parallelogramPerimeter;whiteSpace=wrap;html=1;fixedSize=1;rounded=0;" vertex="1" parent="WIyWlLk6GJQsqaUBKTNV-1">
          <mxGeometry x="-150" y="710" width="80" height="40" as="geometry" />
        </mxCell>
        <mxCell id="9SeCHtIBZzXsKNjQsnPQ-140" value="Practice Human Normal" style="whiteSpace=wrap;html=1;aspect=fixed;rounded=0;" vertex="1" parent="WIyWlLk6GJQsqaUBKTNV-1">
          <mxGeometry x="-140" y="780" width="60" height="60" as="geometry" />
        </mxCell>
        <mxCell id="9SeCHtIBZzXsKNjQsnPQ-141" value="Pracitce Human&lt;br&gt;Hard" style="whiteSpace=wrap;html=1;aspect=fixed;rounded=0;" vertex="1" parent="WIyWlLk6GJQsqaUBKTNV-1">
          <mxGeometry x="-50" y="780" width="60" height="60" as="geometry" />
        </mxCell>
        <mxCell id="9SeCHtIBZzXsKNjQsnPQ-142" value="Practice Human&lt;br&gt;Easy" style="whiteSpace=wrap;html=1;aspect=fixed;rounded=0;" vertex="1" parent="WIyWlLk6GJQsqaUBKTNV-1">
          <mxGeometry x="-230" y="780" width="60" height="60" as="geometry" />
        </mxCell>
        <mxCell id="9SeCHtIBZzXsKNjQsnPQ-143" value="Practice Cat&lt;br&gt;Easy" style="whiteSpace=wrap;html=1;aspect=fixed;rounded=0;" vertex="1" parent="WIyWlLk6GJQsqaUBKTNV-1">
          <mxGeometry x="-230" y="860" width="60" height="60" as="geometry" />
        </mxCell>
        <mxCell id="9SeCHtIBZzXsKNjQsnPQ-144" value="Practice Cat Normal" style="whiteSpace=wrap;html=1;aspect=fixed;rounded=0;" vertex="1" parent="WIyWlLk6GJQsqaUBKTNV-1">
          <mxGeometry x="-140" y="860" width="60" height="60" as="geometry" />
        </mxCell>
        <mxCell id="9SeCHtIBZzXsKNjQsnPQ-145" value="Practice Cat&lt;br&gt;Hard" style="whiteSpace=wrap;html=1;aspect=fixed;rounded=0;" vertex="1" parent="WIyWlLk6GJQsqaUBKTNV-1">
          <mxGeometry x="-50" y="860" width="60" height="60" as="geometry" />
        </mxCell>
        <mxCell id="9SeCHtIBZzXsKNjQsnPQ-146" value="Practice T.Rex Hard" style="whiteSpace=wrap;html=1;aspect=fixed;rounded=0;" vertex="1" parent="WIyWlLk6GJQsqaUBKTNV-1">
          <mxGeometry x="-50" y="940" width="60" height="60" as="geometry" />
        </mxCell>
        <mxCell id="9SeCHtIBZzXsKNjQsnPQ-147" value="Practice T.Rex Normal" style="whiteSpace=wrap;html=1;aspect=fixed;rounded=0;" vertex="1" parent="WIyWlLk6GJQsqaUBKTNV-1">
          <mxGeometry x="-140" y="940" width="60" height="60" as="geometry" />
        </mxCell>
        <mxCell id="9SeCHtIBZzXsKNjQsnPQ-148" value="Practice T.Rex Easy" style="whiteSpace=wrap;html=1;aspect=fixed;rounded=0;" vertex="1" parent="WIyWlLk6GJQsqaUBKTNV-1">
          <mxGeometry x="-230" y="940" width="60" height="60" as="geometry" />
        </mxCell>
        <mxCell id="9SeCHtIBZzXsKNjQsnPQ-149" style="edgeStyle=orthogonalEdgeStyle;orthogonalLoop=1;jettySize=auto;html=1;exitX=0.5;exitY=1;exitDx=0;exitDy=0;entryX=0.5;entryY=0;entryDx=0;entryDy=0;rounded=0;" edge="1" target="9SeCHtIBZzXsKNjQsnPQ-162" parent="WIyWlLk6GJQsqaUBKTNV-1">
          <mxGeometry relative="1" as="geometry">
            <mxPoint x="180" y="685" as="sourcePoint" />
          </mxGeometry>
        </mxCell>
        <mxCell id="9SeCHtIBZzXsKNjQsnPQ-150" style="edgeStyle=orthogonalEdgeStyle;rounded=0;orthogonalLoop=1;jettySize=auto;html=1;exitX=0;exitY=0.5;exitDx=0;exitDy=0;entryX=1;entryY=0.5;entryDx=0;entryDy=0;" edge="1" parent="WIyWlLk6GJQsqaUBKTNV-1">
          <mxGeometry relative="1" as="geometry">
            <mxPoint x="150" y="730.5" as="sourcePoint" />
            <mxPoint x="120" y="890.5" as="targetPoint" />
            <Array as="points">
              <mxPoint x="130" y="730.5" />
              <mxPoint x="130" y="890.5" />
            </Array>
          </mxGeometry>
        </mxCell>
        <mxCell id="9SeCHtIBZzXsKNjQsnPQ-151" style="edgeStyle=orthogonalEdgeStyle;rounded=0;orthogonalLoop=1;jettySize=auto;html=1;exitX=0;exitY=0.5;exitDx=0;exitDy=0;entryX=0;entryY=0.5;entryDx=0;entryDy=0;" edge="1" parent="WIyWlLk6GJQsqaUBKTNV-1">
          <mxGeometry relative="1" as="geometry">
            <mxPoint x="150" y="730.5" as="sourcePoint" />
            <mxPoint x="150" y="890.5" as="targetPoint" />
            <Array as="points">
              <mxPoint x="130" y="730.5" />
              <mxPoint x="130" y="890.5" />
            </Array>
          </mxGeometry>
        </mxCell>
        <mxCell id="9SeCHtIBZzXsKNjQsnPQ-152" style="edgeStyle=orthogonalEdgeStyle;rounded=0;orthogonalLoop=1;jettySize=auto;html=1;exitX=0;exitY=0.5;exitDx=0;exitDy=0;entryX=1;entryY=0.5;entryDx=0;entryDy=0;" edge="1" parent="WIyWlLk6GJQsqaUBKTNV-1">
          <mxGeometry relative="1" as="geometry">
            <mxPoint x="150" y="730.5" as="sourcePoint" />
            <mxPoint x="120" y="975.5" as="targetPoint" />
            <Array as="points">
              <mxPoint x="130" y="730.5" />
              <mxPoint x="130" y="975.5" />
            </Array>
          </mxGeometry>
        </mxCell>
        <mxCell id="9SeCHtIBZzXsKNjQsnPQ-153" style="edgeStyle=orthogonalEdgeStyle;rounded=0;orthogonalLoop=1;jettySize=auto;html=1;exitX=0;exitY=0.5;exitDx=0;exitDy=0;entryX=0;entryY=0.5;entryDx=0;entryDy=0;" edge="1" parent="WIyWlLk6GJQsqaUBKTNV-1">
          <mxGeometry relative="1" as="geometry">
            <mxPoint x="150" y="730.5" as="sourcePoint" />
            <mxPoint x="150" y="975" as="targetPoint" />
            <Array as="points">
              <mxPoint x="130" y="730.5" />
              <mxPoint x="130" y="975.5" />
            </Array>
          </mxGeometry>
        </mxCell>
        <mxCell id="9SeCHtIBZzXsKNjQsnPQ-154" style="edgeStyle=orthogonalEdgeStyle;rounded=0;orthogonalLoop=1;jettySize=auto;html=1;exitX=1;exitY=0.5;exitDx=0;exitDy=0;entryX=1;entryY=0.5;entryDx=0;entryDy=0;" edge="1" parent="WIyWlLk6GJQsqaUBKTNV-1">
          <mxGeometry relative="1" as="geometry">
            <mxPoint x="210" y="730.5" as="sourcePoint" />
            <mxPoint x="210" y="810.5" as="targetPoint" />
            <Array as="points">
              <mxPoint x="230" y="730.5" />
              <mxPoint x="230" y="810.5" />
            </Array>
          </mxGeometry>
        </mxCell>
        <mxCell id="9SeCHtIBZzXsKNjQsnPQ-155" style="edgeStyle=orthogonalEdgeStyle;rounded=0;orthogonalLoop=1;jettySize=auto;html=1;exitX=1;exitY=0.5;exitDx=0;exitDy=0;entryX=0;entryY=0.5;entryDx=0;entryDy=0;" edge="1" parent="WIyWlLk6GJQsqaUBKTNV-1">
          <mxGeometry relative="1" as="geometry">
            <mxPoint x="210" y="730.5" as="sourcePoint" />
            <mxPoint x="240" y="810.5" as="targetPoint" />
            <Array as="points">
              <mxPoint x="230" y="730.5" />
              <mxPoint x="230" y="810.5" />
            </Array>
          </mxGeometry>
        </mxCell>
        <mxCell id="9SeCHtIBZzXsKNjQsnPQ-156" style="edgeStyle=orthogonalEdgeStyle;rounded=0;orthogonalLoop=1;jettySize=auto;html=1;exitX=0;exitY=0.5;exitDx=0;exitDy=0;entryX=1;entryY=0.5;entryDx=0;entryDy=0;" edge="1" parent="WIyWlLk6GJQsqaUBKTNV-1">
          <mxGeometry relative="1" as="geometry">
            <mxPoint x="150" y="730.5" as="sourcePoint" />
            <mxPoint x="120" y="810.5" as="targetPoint" />
            <Array as="points">
              <mxPoint x="130" y="730.5" />
              <mxPoint x="130" y="810.5" />
            </Array>
          </mxGeometry>
        </mxCell>
        <mxCell id="9SeCHtIBZzXsKNjQsnPQ-157" style="edgeStyle=orthogonalEdgeStyle;rounded=0;orthogonalLoop=1;jettySize=auto;html=1;exitX=0;exitY=0.5;exitDx=0;exitDy=0;entryX=0;entryY=0.5;entryDx=0;entryDy=0;" edge="1" parent="WIyWlLk6GJQsqaUBKTNV-1">
          <mxGeometry relative="1" as="geometry">
            <mxPoint x="150" y="730.5" as="sourcePoint" />
            <mxPoint x="150" y="810.5" as="targetPoint" />
            <Array as="points">
              <mxPoint x="130" y="730.5" />
              <mxPoint x="130" y="810.5" />
            </Array>
          </mxGeometry>
        </mxCell>
        <mxCell id="9SeCHtIBZzXsKNjQsnPQ-158" style="edgeStyle=orthogonalEdgeStyle;rounded=0;orthogonalLoop=1;jettySize=auto;html=1;exitX=1;exitY=0.5;exitDx=0;exitDy=0;entryX=1;entryY=0.5;entryDx=0;entryDy=0;" edge="1" parent="WIyWlLk6GJQsqaUBKTNV-1">
          <mxGeometry relative="1" as="geometry">
            <mxPoint x="210" y="730.5" as="sourcePoint" />
            <mxPoint x="210" y="890.5" as="targetPoint" />
            <Array as="points">
              <mxPoint x="230" y="730.5" />
              <mxPoint x="230" y="890.5" />
            </Array>
          </mxGeometry>
        </mxCell>
        <mxCell id="9SeCHtIBZzXsKNjQsnPQ-159" style="edgeStyle=orthogonalEdgeStyle;rounded=0;orthogonalLoop=1;jettySize=auto;html=1;exitX=1;exitY=0.5;exitDx=0;exitDy=0;entryX=1;entryY=0.5;entryDx=0;entryDy=0;" edge="1" parent="WIyWlLk6GJQsqaUBKTNV-1">
          <mxGeometry relative="1" as="geometry">
            <mxPoint x="210" y="730.5" as="sourcePoint" />
            <mxPoint x="210" y="975" as="targetPoint" />
            <Array as="points">
              <mxPoint x="230" y="730.5" />
              <mxPoint x="230" y="975.5" />
            </Array>
          </mxGeometry>
        </mxCell>
        <mxCell id="9SeCHtIBZzXsKNjQsnPQ-160" style="edgeStyle=orthogonalEdgeStyle;rounded=0;orthogonalLoop=1;jettySize=auto;html=1;exitX=1;exitY=0.5;exitDx=0;exitDy=0;entryX=0;entryY=0.5;entryDx=0;entryDy=0;" edge="1" parent="WIyWlLk6GJQsqaUBKTNV-1">
          <mxGeometry relative="1" as="geometry">
            <mxPoint x="210" y="730.5" as="sourcePoint" />
            <mxPoint x="240" y="890.5" as="targetPoint" />
            <Array as="points">
              <mxPoint x="230" y="730.5" />
              <mxPoint x="230" y="890.5" />
            </Array>
          </mxGeometry>
        </mxCell>
        <mxCell id="9SeCHtIBZzXsKNjQsnPQ-161" style="edgeStyle=orthogonalEdgeStyle;rounded=0;orthogonalLoop=1;jettySize=auto;html=1;exitX=1;exitY=0.5;exitDx=0;exitDy=0;entryX=0;entryY=0.5;entryDx=0;entryDy=0;" edge="1" parent="WIyWlLk6GJQsqaUBKTNV-1">
          <mxGeometry relative="1" as="geometry">
            <mxPoint x="210" y="730.5" as="sourcePoint" />
            <mxPoint x="240" y="975" as="targetPoint" />
            <Array as="points">
              <mxPoint x="230" y="730.5" />
              <mxPoint x="230" y="975.5" />
            </Array>
          </mxGeometry>
        </mxCell>
        <mxCell id="9SeCHtIBZzXsKNjQsnPQ-162" value="Selection" style="shape=parallelogram;perimeter=parallelogramPerimeter;whiteSpace=wrap;html=1;fixedSize=1;rounded=0;" vertex="1" parent="WIyWlLk6GJQsqaUBKTNV-1">
          <mxGeometry x="140" y="710.5" width="80" height="40" as="geometry" />
        </mxCell>
        <mxCell id="9SeCHtIBZzXsKNjQsnPQ-163" value="Play Human Normal" style="whiteSpace=wrap;html=1;aspect=fixed;rounded=0;" vertex="1" parent="WIyWlLk6GJQsqaUBKTNV-1">
          <mxGeometry x="150" y="780.5" width="60" height="60" as="geometry" />
        </mxCell>
        <mxCell id="9SeCHtIBZzXsKNjQsnPQ-164" value="Play Human&lt;br&gt;Hard" style="whiteSpace=wrap;html=1;aspect=fixed;rounded=0;" vertex="1" parent="WIyWlLk6GJQsqaUBKTNV-1">
          <mxGeometry x="240" y="780.5" width="60" height="60" as="geometry" />
        </mxCell>
        <mxCell id="9SeCHtIBZzXsKNjQsnPQ-165" value="Play Human&lt;br&gt;Easy" style="whiteSpace=wrap;html=1;aspect=fixed;rounded=0;" vertex="1" parent="WIyWlLk6GJQsqaUBKTNV-1">
          <mxGeometry x="60" y="780.5" width="60" height="60" as="geometry" />
        </mxCell>
        <mxCell id="9SeCHtIBZzXsKNjQsnPQ-166" value="Play&lt;br&gt;Cat&lt;br&gt;Easy" style="whiteSpace=wrap;html=1;aspect=fixed;rounded=0;" vertex="1" parent="WIyWlLk6GJQsqaUBKTNV-1">
          <mxGeometry x="60" y="860.5" width="60" height="60" as="geometry" />
        </mxCell>
        <mxCell id="9SeCHtIBZzXsKNjQsnPQ-167" value="Play&lt;br&gt;Cat Normal" style="whiteSpace=wrap;html=1;aspect=fixed;rounded=0;" vertex="1" parent="WIyWlLk6GJQsqaUBKTNV-1">
          <mxGeometry x="150" y="860.5" width="60" height="60" as="geometry" />
        </mxCell>
        <mxCell id="9SeCHtIBZzXsKNjQsnPQ-168" value="Play&lt;br&gt;Cat&lt;br&gt;Hard" style="whiteSpace=wrap;html=1;aspect=fixed;rounded=0;" vertex="1" parent="WIyWlLk6GJQsqaUBKTNV-1">
          <mxGeometry x="240" y="860.5" width="60" height="60" as="geometry" />
        </mxCell>
        <mxCell id="9SeCHtIBZzXsKNjQsnPQ-169" value="Play&lt;br&gt;T.Rex Hard" style="whiteSpace=wrap;html=1;aspect=fixed;rounded=0;" vertex="1" parent="WIyWlLk6GJQsqaUBKTNV-1">
          <mxGeometry x="240" y="940.5" width="60" height="60" as="geometry" />
        </mxCell>
        <mxCell id="9SeCHtIBZzXsKNjQsnPQ-170" value="Play&lt;br&gt;T.Rex Normal" style="whiteSpace=wrap;html=1;aspect=fixed;rounded=0;" vertex="1" parent="WIyWlLk6GJQsqaUBKTNV-1">
          <mxGeometry x="150" y="940.5" width="60" height="60" as="geometry" />
        </mxCell>
        <mxCell id="9SeCHtIBZzXsKNjQsnPQ-171" value="Play&lt;br&gt;T.Rex Easy" style="whiteSpace=wrap;html=1;aspect=fixed;rounded=0;" vertex="1" parent="WIyWlLk6GJQsqaUBKTNV-1">
          <mxGeometry x="60" y="940.5" width="60" height="60" as="geometry" />
        </mxCell>
        <mxCell id="9SeCHtIBZzXsKNjQsnPQ-177" style="edgeStyle=orthogonalEdgeStyle;orthogonalLoop=1;jettySize=auto;html=1;exitX=1;exitY=0.5;exitDx=0;exitDy=0;entryX=0.5;entryY=0;entryDx=0;entryDy=0;rounded=0;" edge="1" parent="WIyWlLk6GJQsqaUBKTNV-1" source="9SeCHtIBZzXsKNjQsnPQ-172" target="9SeCHtIBZzXsKNjQsnPQ-176">
          <mxGeometry relative="1" as="geometry" />
        </mxCell>
        <mxCell id="9SeCHtIBZzXsKNjQsnPQ-178" style="edgeStyle=orthogonalEdgeStyle;orthogonalLoop=1;jettySize=auto;html=1;exitX=0;exitY=0.5;exitDx=0;exitDy=0;entryX=0.5;entryY=0;entryDx=0;entryDy=0;rounded=0;" edge="1" parent="WIyWlLk6GJQsqaUBKTNV-1" source="9SeCHtIBZzXsKNjQsnPQ-172" target="9SeCHtIBZzXsKNjQsnPQ-174">
          <mxGeometry relative="1" as="geometry" />
        </mxCell>
        <mxCell id="9SeCHtIBZzXsKNjQsnPQ-179" style="edgeStyle=orthogonalEdgeStyle;orthogonalLoop=1;jettySize=auto;html=1;exitX=0.5;exitY=1;exitDx=0;exitDy=0;entryX=0.5;entryY=0;entryDx=0;entryDy=0;rounded=0;" edge="1" parent="WIyWlLk6GJQsqaUBKTNV-1" source="9SeCHtIBZzXsKNjQsnPQ-172" target="9SeCHtIBZzXsKNjQsnPQ-175">
          <mxGeometry relative="1" as="geometry" />
        </mxCell>
        <mxCell id="9SeCHtIBZzXsKNjQsnPQ-172" value="Play" style="shape=process;whiteSpace=wrap;html=1;backgroundOutline=1;rounded=0;" vertex="1" parent="WIyWlLk6GJQsqaUBKTNV-1">
          <mxGeometry x="667" y="650" width="60" height="60" as="geometry" />
        </mxCell>
        <mxCell id="9SeCHtIBZzXsKNjQsnPQ-194" style="edgeStyle=orthogonalEdgeStyle;rounded=0;orthogonalLoop=1;jettySize=auto;html=1;exitX=0.5;exitY=1;exitDx=0;exitDy=0;entryX=0.5;entryY=0;entryDx=0;entryDy=0;" edge="1" parent="WIyWlLk6GJQsqaUBKTNV-1" source="9SeCHtIBZzXsKNjQsnPQ-174" target="9SeCHtIBZzXsKNjQsnPQ-193">
          <mxGeometry relative="1" as="geometry" />
        </mxCell>
        <mxCell id="9SeCHtIBZzXsKNjQsnPQ-174" value="Click &amp;amp; Drag?" style="rhombus;whiteSpace=wrap;html=1;rounded=0;" vertex="1" parent="WIyWlLk6GJQsqaUBKTNV-1">
          <mxGeometry x="520" y="730" width="80" height="80" as="geometry" />
        </mxCell>
        <mxCell id="9SeCHtIBZzXsKNjQsnPQ-181" style="edgeStyle=orthogonalEdgeStyle;orthogonalLoop=1;jettySize=auto;html=1;exitX=0.5;exitY=1;exitDx=0;exitDy=0;entryX=0.5;entryY=0;entryDx=0;entryDy=0;rounded=0;" edge="1" parent="WIyWlLk6GJQsqaUBKTNV-1" source="9SeCHtIBZzXsKNjQsnPQ-175" target="9SeCHtIBZzXsKNjQsnPQ-180">
          <mxGeometry relative="1" as="geometry" />
        </mxCell>
        <mxCell id="9SeCHtIBZzXsKNjQsnPQ-175" value="Input Box?" style="rhombus;whiteSpace=wrap;html=1;rounded=0;" vertex="1" parent="WIyWlLk6GJQsqaUBKTNV-1">
          <mxGeometry x="657" y="730" width="80" height="80" as="geometry" />
        </mxCell>
        <mxCell id="9SeCHtIBZzXsKNjQsnPQ-192" style="edgeStyle=orthogonalEdgeStyle;rounded=0;orthogonalLoop=1;jettySize=auto;html=1;exitX=0.5;exitY=1;exitDx=0;exitDy=0;entryX=0.5;entryY=0;entryDx=0;entryDy=0;" edge="1" parent="WIyWlLk6GJQsqaUBKTNV-1" source="9SeCHtIBZzXsKNjQsnPQ-176" target="9SeCHtIBZzXsKNjQsnPQ-191">
          <mxGeometry relative="1" as="geometry" />
        </mxCell>
        <mxCell id="9SeCHtIBZzXsKNjQsnPQ-176" value="Mousewheel?" style="rhombus;whiteSpace=wrap;html=1;rounded=0;" vertex="1" parent="WIyWlLk6GJQsqaUBKTNV-1">
          <mxGeometry x="800" y="730" width="80" height="80" as="geometry" />
        </mxCell>
        <mxCell id="9SeCHtIBZzXsKNjQsnPQ-185" style="edgeStyle=orthogonalEdgeStyle;orthogonalLoop=1;jettySize=auto;html=1;exitX=0;exitY=1;exitDx=0;exitDy=0;entryX=0.5;entryY=0;entryDx=0;entryDy=0;rounded=0;" edge="1" parent="WIyWlLk6GJQsqaUBKTNV-1" source="9SeCHtIBZzXsKNjQsnPQ-180" target="9SeCHtIBZzXsKNjQsnPQ-182">
          <mxGeometry relative="1" as="geometry" />
        </mxCell>
        <mxCell id="9SeCHtIBZzXsKNjQsnPQ-186" style="edgeStyle=orthogonalEdgeStyle;orthogonalLoop=1;jettySize=auto;html=1;exitX=1;exitY=1;exitDx=0;exitDy=0;entryX=0.5;entryY=0;entryDx=0;entryDy=0;rounded=0;" edge="1" parent="WIyWlLk6GJQsqaUBKTNV-1" source="9SeCHtIBZzXsKNjQsnPQ-180" target="9SeCHtIBZzXsKNjQsnPQ-184">
          <mxGeometry relative="1" as="geometry" />
        </mxCell>
        <mxCell id="9SeCHtIBZzXsKNjQsnPQ-180" value="Guess" style="rounded=0;whiteSpace=wrap;html=1;" vertex="1" parent="WIyWlLk6GJQsqaUBKTNV-1">
          <mxGeometry x="637" y="840" width="120" height="40" as="geometry" />
        </mxCell>
        <mxCell id="9SeCHtIBZzXsKNjQsnPQ-189" style="edgeStyle=orthogonalEdgeStyle;rounded=0;orthogonalLoop=1;jettySize=auto;html=1;exitX=0.5;exitY=1;exitDx=0;exitDy=0;entryX=0.5;entryY=0;entryDx=0;entryDy=0;" edge="1" parent="WIyWlLk6GJQsqaUBKTNV-1" source="9SeCHtIBZzXsKNjQsnPQ-182" target="9SeCHtIBZzXsKNjQsnPQ-187">
          <mxGeometry relative="1" as="geometry" />
        </mxCell>
        <mxCell id="9SeCHtIBZzXsKNjQsnPQ-182" value="Correct?" style="rhombus;whiteSpace=wrap;html=1;rounded=0;" vertex="1" parent="WIyWlLk6GJQsqaUBKTNV-1">
          <mxGeometry x="620" y="910" width="60" height="60" as="geometry" />
        </mxCell>
        <mxCell id="9SeCHtIBZzXsKNjQsnPQ-190" style="edgeStyle=orthogonalEdgeStyle;rounded=0;orthogonalLoop=1;jettySize=auto;html=1;exitX=0.5;exitY=1;exitDx=0;exitDy=0;entryX=0.5;entryY=0;entryDx=0;entryDy=0;" edge="1" parent="WIyWlLk6GJQsqaUBKTNV-1" source="9SeCHtIBZzXsKNjQsnPQ-184" target="9SeCHtIBZzXsKNjQsnPQ-188">
          <mxGeometry relative="1" as="geometry" />
        </mxCell>
        <mxCell id="9SeCHtIBZzXsKNjQsnPQ-184" value="Incorrect?" style="rhombus;whiteSpace=wrap;html=1;rounded=0;" vertex="1" parent="WIyWlLk6GJQsqaUBKTNV-1">
          <mxGeometry x="720" y="910" width="60" height="60" as="geometry" />
        </mxCell>
        <mxCell id="9SeCHtIBZzXsKNjQsnPQ-187" value="Game Over Screen" style="whiteSpace=wrap;html=1;aspect=fixed;" vertex="1" parent="WIyWlLk6GJQsqaUBKTNV-1">
          <mxGeometry x="620" y="1000" width="60" height="60" as="geometry" />
        </mxCell>
        <mxCell id="9SeCHtIBZzXsKNjQsnPQ-188" value="Highlight Bone Using Algorithm" style="whiteSpace=wrap;html=1;aspect=fixed;" vertex="1" parent="WIyWlLk6GJQsqaUBKTNV-1">
          <mxGeometry x="720" y="1000" width="60" height="60" as="geometry" />
        </mxCell>
        <mxCell id="9SeCHtIBZzXsKNjQsnPQ-191" value="Zoom" style="whiteSpace=wrap;html=1;aspect=fixed;" vertex="1" parent="WIyWlLk6GJQsqaUBKTNV-1">
          <mxGeometry x="815" y="830" width="50" height="50" as="geometry" />
        </mxCell>
        <mxCell id="9SeCHtIBZzXsKNjQsnPQ-193" value="Rotate Mesh" style="whiteSpace=wrap;html=1;aspect=fixed;" vertex="1" parent="WIyWlLk6GJQsqaUBKTNV-1">
          <mxGeometry x="535" y="830" width="50" height="50" as="geometry" />
        </mxCell>
        <mxCell id="9SeCHtIBZzXsKNjQsnPQ-216" style="edgeStyle=orthogonalEdgeStyle;orthogonalLoop=1;jettySize=auto;html=1;exitX=1;exitY=0.5;exitDx=0;exitDy=0;entryX=0.5;entryY=0;entryDx=0;entryDy=0;rounded=0;" edge="1" source="9SeCHtIBZzXsKNjQsnPQ-219" target="9SeCHtIBZzXsKNjQsnPQ-225" parent="WIyWlLk6GJQsqaUBKTNV-1">
          <mxGeometry relative="1" as="geometry" />
        </mxCell>
        <mxCell id="9SeCHtIBZzXsKNjQsnPQ-217" style="edgeStyle=orthogonalEdgeStyle;orthogonalLoop=1;jettySize=auto;html=1;exitX=0;exitY=0.5;exitDx=0;exitDy=0;entryX=0.5;entryY=0;entryDx=0;entryDy=0;rounded=0;" edge="1" source="9SeCHtIBZzXsKNjQsnPQ-219" target="9SeCHtIBZzXsKNjQsnPQ-221" parent="WIyWlLk6GJQsqaUBKTNV-1">
          <mxGeometry relative="1" as="geometry" />
        </mxCell>
        <mxCell id="9SeCHtIBZzXsKNjQsnPQ-218" style="edgeStyle=orthogonalEdgeStyle;orthogonalLoop=1;jettySize=auto;html=1;exitX=0.5;exitY=1;exitDx=0;exitDy=0;entryX=0.5;entryY=0;entryDx=0;entryDy=0;rounded=0;" edge="1" source="9SeCHtIBZzXsKNjQsnPQ-219" target="9SeCHtIBZzXsKNjQsnPQ-223" parent="WIyWlLk6GJQsqaUBKTNV-1">
          <mxGeometry relative="1" as="geometry" />
        </mxCell>
        <mxCell id="9SeCHtIBZzXsKNjQsnPQ-219" value="Practice" style="shape=process;whiteSpace=wrap;html=1;backgroundOutline=1;rounded=0;" vertex="1" parent="WIyWlLk6GJQsqaUBKTNV-1">
          <mxGeometry x="1091" y="644.75" width="60" height="60" as="geometry" />
        </mxCell>
        <mxCell id="9SeCHtIBZzXsKNjQsnPQ-220" style="edgeStyle=orthogonalEdgeStyle;rounded=0;orthogonalLoop=1;jettySize=auto;html=1;exitX=0.5;exitY=1;exitDx=0;exitDy=0;entryX=0.5;entryY=0;entryDx=0;entryDy=0;" edge="1" source="9SeCHtIBZzXsKNjQsnPQ-221" target="9SeCHtIBZzXsKNjQsnPQ-236" parent="WIyWlLk6GJQsqaUBKTNV-1">
          <mxGeometry relative="1" as="geometry" />
        </mxCell>
        <mxCell id="9SeCHtIBZzXsKNjQsnPQ-221" value="Click &amp;amp; Drag?" style="rhombus;whiteSpace=wrap;html=1;rounded=0;" vertex="1" parent="WIyWlLk6GJQsqaUBKTNV-1">
          <mxGeometry x="944" y="724.75" width="80" height="80" as="geometry" />
        </mxCell>
        <mxCell id="9SeCHtIBZzXsKNjQsnPQ-222" style="edgeStyle=orthogonalEdgeStyle;orthogonalLoop=1;jettySize=auto;html=1;exitX=0.5;exitY=1;exitDx=0;exitDy=0;rounded=0;" edge="1" source="9SeCHtIBZzXsKNjQsnPQ-223" parent="WIyWlLk6GJQsqaUBKTNV-1">
          <mxGeometry relative="1" as="geometry">
            <mxPoint x="1121" y="834.75" as="targetPoint" />
          </mxGeometry>
        </mxCell>
        <mxCell id="9SeCHtIBZzXsKNjQsnPQ-223" value="Click?" style="rhombus;whiteSpace=wrap;html=1;rounded=0;" vertex="1" parent="WIyWlLk6GJQsqaUBKTNV-1">
          <mxGeometry x="1081" y="724.75" width="80" height="80" as="geometry" />
        </mxCell>
        <mxCell id="9SeCHtIBZzXsKNjQsnPQ-224" style="edgeStyle=orthogonalEdgeStyle;rounded=0;orthogonalLoop=1;jettySize=auto;html=1;exitX=0.5;exitY=1;exitDx=0;exitDy=0;entryX=0.5;entryY=0;entryDx=0;entryDy=0;" edge="1" source="9SeCHtIBZzXsKNjQsnPQ-225" target="9SeCHtIBZzXsKNjQsnPQ-235" parent="WIyWlLk6GJQsqaUBKTNV-1">
          <mxGeometry relative="1" as="geometry" />
        </mxCell>
        <mxCell id="9SeCHtIBZzXsKNjQsnPQ-225" value="Mousewheel?" style="rhombus;whiteSpace=wrap;html=1;rounded=0;" vertex="1" parent="WIyWlLk6GJQsqaUBKTNV-1">
          <mxGeometry x="1224" y="724.75" width="80" height="80" as="geometry" />
        </mxCell>
        <mxCell id="9SeCHtIBZzXsKNjQsnPQ-228" value="Highlight bone clicked and print name and what to type for that bone in bottom left of the screen" style="rounded=0;whiteSpace=wrap;html=1;" vertex="1" parent="WIyWlLk6GJQsqaUBKTNV-1">
          <mxGeometry x="1061" y="950" width="120" height="100" as="geometry" />
        </mxCell>
        <mxCell id="9SeCHtIBZzXsKNjQsnPQ-235" value="Zoom" style="whiteSpace=wrap;html=1;aspect=fixed;" vertex="1" parent="WIyWlLk6GJQsqaUBKTNV-1">
          <mxGeometry x="1239" y="824.75" width="50" height="50" as="geometry" />
        </mxCell>
        <mxCell id="9SeCHtIBZzXsKNjQsnPQ-236" value="Rotate Mesh" style="whiteSpace=wrap;html=1;aspect=fixed;" vertex="1" parent="WIyWlLk6GJQsqaUBKTNV-1">
          <mxGeometry x="959" y="824.75" width="50" height="50" as="geometry" />
        </mxCell>
        <mxCell id="9SeCHtIBZzXsKNjQsnPQ-238" style="edgeStyle=orthogonalEdgeStyle;rounded=0;orthogonalLoop=1;jettySize=auto;html=1;exitX=0.5;exitY=1;exitDx=0;exitDy=0;entryX=0.5;entryY=0;entryDx=0;entryDy=0;" edge="1" parent="WIyWlLk6GJQsqaUBKTNV-1" source="9SeCHtIBZzXsKNjQsnPQ-237" target="9SeCHtIBZzXsKNjQsnPQ-228">
          <mxGeometry relative="1" as="geometry" />
        </mxCell>
        <mxCell id="9SeCHtIBZzXsKNjQsnPQ-237" value="Hit Bone?" style="rhombus;whiteSpace=wrap;html=1;" vertex="1" parent="WIyWlLk6GJQsqaUBKTNV-1">
          <mxGeometry x="1091" y="835.25" width="60" height="60" as="geometry" />
        </mxCell>
        <mxCell id="9SeCHtIBZzXsKNjQsnPQ-239" value="&lt;h1&gt;Bonle&lt;/h1&gt;&lt;p&gt;By: Calvin Webb&lt;/p&gt;&lt;p&gt;Official Bonle Flowchart as of&amp;nbsp; version 1.8&lt;/p&gt;" style="text;html=1;strokeColor=none;fillColor=none;spacing=5;spacingTop=-20;whiteSpace=wrap;overflow=hidden;rounded=0;" vertex="1" parent="WIyWlLk6GJQsqaUBKTNV-1">
          <mxGeometry x="-230" y="40" width="190" height="120" as="geometry" />
        </mxCell>
      </root>
    </mxGraphModel>
  </diagram>
</mxfile>
